# xmcd
# Track frame offsets:
# 150
# 12541
# 29218
# 43097
# 59843
# 74977
# 87096
# 100054
# 117035
# 129260
# 142647
# 161855
#
# Disc length: 2349 seconds
# Revision: 0
# Processed by: cddbd v1.4PL0 Copyright (c) Steve Scherf et al.
# Submitted via: VisiTrax 2.9.5.180 - For more info visit www.synapsa.com
#
DISCID=ae092b0c
DTITLE=Carl Vaughan - Yours forever
DYEAR=1900
DGENRE=
TTITLE0=Walk off the world
TTITLE1=Yours foever
TTITLE2=You oughta try getting over you
TTITLE3=You're just another beer drinking song
TTITLE4=Would you want the world to end
TTITLE5=Good chance of tearfall
TTITLE6=I've just destroyed the world I'm living in
TTITLE7=The rodeo is over
TTITLE8=Will I do 'til the real thing comes along
TTITLE9=Don't leave the leaving to me
TTITLE10=The marionette
TTITLE11=After the loving
EXTD=
EXTT0=
EXTT1=
EXTT2=
EXTT3=
EXTT4=
EXTT5=
EXTT6=
EXTT7=
EXTT8=
EXTT9=
EXTT10=
EXTT11=
PLAYORDER=
